# xmcd CD database file
#
# Track frame offsets:
#	150
#	15065
#	45604
#	70783
#	91470
#	115280
#	135926
#	160902
#	172767
#	199157
#	224268
#	247429
#	272800
#
# Disc length: 4232 seconds
#
# Revision: 0
# Processed by: cddbd v1.4PL0 Copyright (c) Steve Scherf et al.
# Submitted via: Feurio! 1.65 - http://www.feurio.com
#
DISCID=af10860d
DTITLE=Mick Martin and The Blues Rockers - Blues All Night
DYEAR=1996
DGENRE=blues
TTITLE0=Hold On, Baby
TTITLE1=Brand New Woman
TTITLE2=Louise
TTITLE3=Can't Get Enough
TTITLE4=Your Lies
TTITLE5=Blues All Night
TTITLE6=Takin' My Time
TTITLE7=Clean And Me
TTITLE8=Heartbreaker
TTITLE9=Sugar Man
TTITLE10=I Know
TTITLE11=Back-Talkin' Baby
TTITLE12=Losing You
EXTD=Blues Rock Records
EXTT0=
EXTT1=
EXTT2=
EXTT3=
EXTT4=
EXTT5=
EXTT6=
EXTT7=
EXTT8=
EXTT9=
EXTT10=
EXTT11=
EXTT12=
PLAYORDER=
